:SAMPLES-PER-SECOND 30
:FULLY-SPECIFIED
:DEGREES
390
root  62.3435 39.9979 2.04688 163.441 89.2025 151.367
RightUpLeg  -17.1985 -5.60995 -1.67476
RightLeg  5.72403 10.6338 1.21905
RightFoot  6.16544 0.00883514 0.217282
RightToes  4.6566e-010 0 -3.6325e-017
Spine  37.8081 -0.316533 30.3006
Spine1  -36.1854 3.9349 -32.1218
HEad  11.1157 -16.6068 -8.34402
LeftShoulder1  -6.05176 22.6451 -24.7695
LeftArm  91.2011 -62.1924 -165.486
LeftForeArm  -2.68283 -11.1446 -9.2331
LeftHand  -0.0294405 8.2335 0.586277
RightShoulder  -20.6099 27.7434 -76.5882
RightArm  -22.077 65.5709 11.729
RightForeArm  -52.3732 -6.48367 10.6052
RightHand  153.622 38.2133 169.05
LeftUpLeg  -17.4423 3.94088 2.24257
LeftLeg  2.74719 -4.52269 -0.0314806
LeftFoot  9.74461 -0.0966157 0.199243
LeftToes  -4.59298e-010 2.08438e-011 -1.27151e-011
391
root  62.4403 40.0416 2.0637 155.441 89.1653 143.734
RightUpLeg  -16.76 -5.69245 -1.80918
RightLeg  5.95157 10.8612 1.25003
RightFoot  6.16311 -0.0464597 0.576169
RightToes  4.6566e-010 0 -3.6325e-017
Spine  37.7157 -0.459897 30.0851
Spine1  -36.2914 3.60532 -32.3867
HEad  11.4653 -16.1617 -8.24254
LeftShoulder1  -5.70864 22.3572 -23.3035
LeftArm  91.4514 -62.5075 -166.69
LeftForeArm  0.317766 -9.67223 -9.02631
LeftHand  -0.024264 7.40057 0.897564
RightShoulder  -19.7742 27.6072 -74.638
RightArm  0.0967487 75.7554 5.95212
RightForeArm  -86.9963 -2.05485 17.8358
RightHand  149.521 35.613 168.099
LeftUpLeg  -16.9796 4.00624 2.22495
LeftLeg  2.95831 -4.73221 -0.100411
LeftFoot  9.85869 -0.0731308 0.0685477
LeftToes  -4.59298e-010 2.08438e-011 -1.27151e-011
392
root  62.5013 40.0673 2.0653 167.644 89.1039 156.168
RightUpLeg  -16.8696 -5.74076 -1.73575
RightLeg  6.83676 10.756 1.47794
RightFoot  6.2044 -0.0427729 0.552827
RightToes  4.6566e-010 0 -3.6325e-017
Spine  39.9627 -0.857569 29.4978
Spine1  -40.4212 1.88131 -34.4258
HEad  10.9704 -16.569 -6.14907
LeftShoulder1  -4.60013 20.6744 -19.8596
LeftArm  90.7579 -62.8293 -167.22
LeftForeArm  2.16184 -6.46319 -8.92596
LeftHand  -0.0187432 6.49186 1.50886
RightShoulder  -19.1994 29.1567 -70.4806
RightArm  56.9796 71.641 0.686216
RightForeArm  -132.358 21.5464 16.1531
RightHand  150.652 39.1465 167.722
LeftUpLeg  -17.0651 3.94698 2.32967
LeftLeg  3.69518 -4.75867 -0.0105637
LeftFoot  9.73947 0.00817945 -0.363785
LeftToes  -4.59298e-010 2.08438e-011 -1.27151e-011
393
root  62.5535 40.0769 2.06734 160.426 89.087 149.469
RightUpLeg  -16.7196 -5.82645 -1.85933
RightLeg  7.7997 10.6965 1.61373
RightFoot  5.97894 -0.077328 0.776348
RightToes  4.6566e-010 0 -3.6325e-017
Spine  38.9 -0.705979 28.5881
Spine1  -38.9819 2.5029 -31.5124
HEad  12.5182 -13.8508 -8.27468
LeftShoulder1  -4.91009 21.4589 -20.3757
LeftArm  92.6597 -63.8331 -168.076
LeftForeArm  1.76479 -6.40498 -8.61941
LeftHand  -0.0196099 6.39775 1.61934
RightShoulder  -20.6455 28.0282 -76.1693
RightArm  36.6202 46.2957 -14.2208
RightForeArm  -70.3164 34.5116 9.08968
RightHand  161.819 54.7521 169.244
LeftUpLeg  -16.9879 4.00672 2.28843
LeftLeg  4.79471 -4.89464 -0.155589
LeftFoot  9.58866 0.0456605 -0.563777
LeftToes  -4.59298e-010 2.08438e-011 -1.27151e-011
394
root  62.5862 40.0605 2.06981 150.527 88.9902 140.369
RightUpLeg  -16.5347 -5.84115 -2.08725
RightLeg  9.30573 10.8149 1.75543
RightFoot  5.40131 -0.0838371 0.820649
RightToes  4.6566e-010 0 -3.6325e-017
Spine  37.8361 -0.456455 27.9991
Spine1  -37.4822 3.0053 -30.0345
HEad  12.8907 -11.9411 -9.47747
LeftShoulder1  -4.84696 21.3756 -20.1486
LeftArm  94.0599 -64.7147 -168.548
LeftForeArm  3.42346 -6.3755 -8.48557
LeftHand  -0.0196207 6.37831 1.95033
RightShoulder  -19.3158 26.4283 -75.4484
RightArm  41.258 55.2057 -18.7288
RightForeArm  -82.3632 33.3451 9.65226
RightHand  165.481 52.237 171.711
LeftUpLeg  -16.7447 4.07447 2.19339
LeftLeg  6.10971 -5.04921 -0.367135
LeftFoot  9.25108 0.037826 -0.519794
LeftToes  -4.59298e-010 2.08438e-011 -1.27151e-011
395
root  62.6024 40.0415 2.06654 147.072 88.9009 137.655
RightUpLeg  -16.5469 -5.67966 -2.26477
RightLeg  10.995 10.6573 1.92797
RightFoot  4.96675 -0.126793 1.12385
RightToes  4.6566e-010 0 -3.6325e-017
Spine  36.1697 -0.626101 28.6247
Spine1  -34.7954 3.50628 -29.6245
HEad  13.8003 -9.67406 -10.7328
LeftShoulder1  -4.79024 21.778 -19.1647
LeftArm  97.5546 -65.6165 -171.058
LeftForeArm  4.54779 -5.83402 -7.92767
LeftHand  -0.0138423 6.32679 2.1928
RightShoulder  -18.3787 24.9372 -75.5331
RightArm  44.2636 60.5997 -26.6131
RightForeArm  -90.3252 35.1997 10.1066
RightHand  171.711 50.3032 175.217
LeftUpLeg  -16.6708 3.99829 2.12389
LeftLeg  7.60251 -4.98831 -0.409473
LeftFoot  8.90735 0.0852924 -0.781576
LeftToes  -4.59298e-010 2.08438e-011 -1.27151e-011
396
root  62.5873 39.9994 2.05859 141.545 88.9343 133.073
RightUpLeg  -16.8154 -5.5965 -2.52111
RightLeg  13.4851 10.6276 2.50403
RightFoot  4.42524 -0.220226 1.80801
RightToes  4.6566e-010 0 -3.6325e-017
Spine  35.169 -0.713928 29.5581
Spine1  -32.8181 3.87264 -30.9037
HEad  13.2686 -8.50902 -10.912
LeftShoulder1  -4.41066 20.8819 -18.3231
LeftArm  102.302 -66.2525 -173.839
LeftForeArm  3.51292 -4.3662 -8.29249
LeftHand  -0.00900166 6.55534 2.3764
RightShoulder  -17.4159 24.9717 -72.6528
RightArm  40.4616 63.3045 -35.7174
RightForeArm  -87.8032 38.4227 11.1405
RightHand  172.853 51.2895 175.7
LeftUpLeg  -16.5858 4.41163 2.21126
LeftLeg  9.45209 -5.44602 -0.837089
LeftFoot  8.39169 0.0992281 -0.864997
LeftToes  -4.59298e-010 2.08438e-011 -1.27151e-011
397
root  62.532 39.9444 2.07204 129.148 88.9604 121.646
RightUpLeg  -17.2143 -4.94895 -2.87771
RightLeg  16.0755 10.1959 2.94201
RightFoot  4.09532 -0.327021 2.61782
RightToes  4.6566e-010 0 -3.6325e-017
Spine  35.089 -0.878289 30.1612
Spine1  -32.2353 3.93112 -32.5454
HEad  13.4968 -6.45431 -10.8932
LeftShoulder1  -4.019 20.4342 -16.5906
LeftArm  104.271 -66.6367 -174.667
LeftForeArm  2.93005 -3.9006 -8.73646
LeftHand  -0.0120472 6.21281 2.6298
RightShoulder  -16.6409 24.8053 -70.6152
RightArm  40.1304 66.2422 -42.0701
RightForeArm  -95.728 38.7997 11.1009
RightHand  175.425 49.2806 177.127
LeftUpLeg  -16.4061 4.86439 2.26177
LeftLeg  11.0316 -6.06946 -1.19324
LeftFoot  7.97312 0.173442 -1.30584
LeftToes  -4.59298e-010 2.08438e-011 -1.27151e-011
398
root  62.4426 39.8618 2.10401 125.449 89.0138 118.956
RightUpLeg  -18.111 -5.15005 -3.17351
RightLeg  19.6343 10.9106 4.09886
RightFoot  3.90626 -0.529319 4.15452
RightToes  4.6566e-010 0 -3.6325e-017
Spine  35.067 -1.18118 30.712
Spine1  -31.8358 3.80844 -34.1695
HEad  13.8367 -5.26768 -10.2173
LeftShoulder1  -3.57997 19.842 -14.6398
LeftArm  105.559 -67.0232 -175.433
LeftForeArm  2.12521 -3.34042 -8.60972
LeftHand  -0.0190149 5.77557 2.78222
RightShoulder  -15.639 24.3328 -68.3322
RightArm  36.4179 68.9504 -51.5776
RightForeArm  -101.908 40.0655 11.3612
RightHand  178.409 47.3837 178.618
LeftUpLeg  -16.1895 5.82937 2.48188
LeftLeg  12.5642 -7.22283 -1.76855
LeftFoot  7.32479 0.276461 -1.95543
LeftToes  -4.59298e-010 2.08438e-011 -1.27151e-011
399
root  62.344 39.7373 2.16767 132.087 89.2511 126.34
RightUpLeg  -19.5026 -5.12278 -3.39919
RightLeg  23.5683 12.5644 5.72908
RightFoot  3.74068 -0.898084 6.96135
RightToes  4.6566e-010 0 -3.6325e-017
Spine  34.6695 -1.24772 29.6321
Spine1  -31.5651 3.67249 -32.6085
HEad  13.6001 -2.52981 -10.8594
LeftShoulder1  -3.3866 20.1821 -12.9168
LeftArm  108.99 -68.4291 -176.916
LeftForeArm  -1.19879 -2.95205 -8.66041
LeftHand  -0.0139387 6.00005 2.91807
RightShoulder  -14.1832 21.7701 -68.5953
RightArm  26.191 70.1715 -67.0669
RightForeArm  -115.333 40.7907 11.0459
RightHand  -179.75 44.1516 179.565
LeftUpLeg  -16.4881 6.93562 2.99121
LeftLeg  14.5353 -8.72894 -2.46194
LeftFoot  6.4632 0.331159 -2.36322
LeftToes  -4.59298e-010 2.08438e-011 -1.27151e-011
400
root  62.2329 39.6061 2.26926 105.696 89.2723 100.779
RightUpLeg  -20.9576 -3.42323 -4.57313
RightLeg  27.7265 14.7765 8.09643
RightFoot  3.70669 -1.40596 10.7999
RightToes  4.6566e-010 0 -3.6325e-017
Spine  34.1812 -1.04761 26.9771
Spine1  -30.9628 3.52578 -30.588
HEad  10.6978 -2.81047 -10.3925
LeftShoulder1  -3.86446 22.2711 -13.0157
LeftArm  116.283 -68.9878 178.782
LeftForeArm  -4.077 -4.0209 -9.91353
LeftHand  -0.0164968 5.86862 3.00492
RightShoulder  -11.2124 15.314 -71.2524
RightArm  14.1202 69.2712 -82.8418
RightForeArm  -149.223 36.7426 8.12546
RightHand  172.109 41.064 176.066
LeftUpLeg  -16.4552 7.81004 3.1182
LeftLeg  16.1374 -9.45765 -2.96039
LeftFoot  5.81403 0.328277 -2.41216
LeftToes  -4.59298e-010 2.08438e-011 -1.27151e-011
401
root  62.1165 39.4158 2.44636 96.9291 88.5904 93.3109
RightUpLeg  -21.8291 -1.01343 -6.62725
RightLeg  32.1623 18.1085 11.6933
RightFoot  2.86095 -1.67785 13.6214
RightToes  4.6566e-010 0 -3.6325e-017
Spine  34.6448 -2.08275 32.6075
Spine1  -30.3075 3.13242 -44.9643
HEad  11.0156 -6.64152 -4.66359
LeftShoulder1  -3.51147 17.3849 -19.451
LeftArm  119.64 -64.2174 177.676
LeftForeArm  3.45168 -1.64819 -13.9996
LeftHand  -0.0225651 5.47336 3.66542
RightShoulder  -9.26254 15.8068 -61.3081
RightArm  5.63295 69.0068 -92.7231
RightForeArm  -152.195 34.6638 7.40094
RightHand  157.825 49.5708 168.044
LeftUpLeg  -16.0057 8.26946 2.84509
LeftLeg  17.7971 -9.98227 -3.43977
LeftFoot  4.93801 0.337392 -2.5678
LeftToes  -4.59298e-010 2.08438e-011 -1.27151e-011
